<?xml version="1.0" encoding="iso-8859-1"?>
<!-- Uploaded to: SVG Repo, www.svgrepo.com, Generator: SVG Repo Mixer Tools -->
<svg height="800px" width="800px" version="1.1" id="Layer_1" xmlns="http://www.w3.org/2000/svg" xmlns:xlink="http://www.w3.org/1999/xlink" 
	 viewBox="0 0 503.467 503.467" xml:space="preserve">
<g transform="translate(1 1)">
	<path style="fill:#80D6FA;" d="M71.548,429.933v51.2c0,9.387-7.68,17.067-17.067,17.067h-51.2V276.333h51.2
		c9.387,0,17.067,7.68,17.067,17.067v17.067V429.933z"/>
	<path style="fill:#FFD0A1;" d="M353.148,399.213c2.56-0.853,5.973-2.56,8.533-3.413l98.133-47.787
		c11.947-6.827,28.16-2.56,34.987,9.387c6.827,11.947,2.56,28.16-9.387,34.987l-115.2,71.68c0,0-25.6,17.067-85.333,17.067
		c-51.2,0-128-42.667-128-42.667s-17.067-8.533-51.2-8.533H71.548V310.467h102.4c25.6,0,68.267,51.2,93.867,51.2h51.2
		c17.067,0,25.6,8.533,25.6,8.533s11.093,6.827,7.68,25.6L353.148,399.213z"/>
	<path style="fill:#ECF4F7;" d="M464.081,250.733V293.4h-42.667l-8.533-8.533v-25.6h-17.067V242.2h-25.6l-8.533-8.533v-25.6h-25.6
		l-26.453-26.453v-0.853c17.92-9.387,33.28-23.893,41.813-41.813l1.707,0.853L464.081,250.733z"/>
	<path style="fill:#FF7474;" d="M208.935,170.52c-21.333-17.067-34.987-44.373-34.987-73.387c0-52.053,41.813-93.867,93.867-93.867
		s93.867,41.813,93.867,93.867c0,15.36-3.413,29.013-10.24,41.813c-9.387,17.92-23.893,33.28-42.667,41.813
		c-12.8,5.973-26.453,9.387-41.813,9.387c-10.24,0-20.48-1.707-29.867-5.12C237.948,185.88,227.708,184.173,208.935,170.52
		 M231.121,96.28c4.267,5.973,11.947,9.387,19.627,9.387c14.507,0,25.6-11.093,25.6-25.6s-11.093-25.6-25.6-25.6
		c-14.507,0-25.6,11.093-25.6,25.6C225.148,86.04,226.855,92.013,231.121,96.28"/>
</g>
<path style="fill:#51565F;" d="M55.481,503.467h-51.2c-2.56,0-4.267-1.707-4.267-4.267c0-2.56,1.707-4.267,4.267-4.267h51.2
	c6.827,0,12.8-5.973,12.8-12.8V294.4c0-6.827-5.973-12.8-12.8-12.8h-51.2c-2.56,0-4.267-1.707-4.267-4.267s1.707-4.267,4.267-4.267
	h51.2c11.947,0,21.333,9.387,21.333,21.333v187.733C76.815,494.08,67.428,503.467,55.481,503.467z M285.881,486.4
	c-52.053,0-127.147-41.813-129.707-43.52l0,0c0,0-17.067-7.68-49.493-7.68c-2.56,0-4.267-1.707-4.267-4.267
	c0-2.56,1.707-4.267,4.267-4.267c34.987,0,52.053,8.533,52.907,9.387c0.853,0.853,76.8,41.813,126.293,41.813
	c57.173,0,82.773-16.213,82.773-16.213l115.2-71.68c5.12-2.56,8.533-7.68,10.24-12.8c1.707-5.12,0.853-11.093-2.56-16.213
	c-3.413-5.12-7.68-8.533-12.8-10.24c-5.12-1.707-11.093-0.853-16.213,1.707l-98.133,47.787c-17.92,9.387-34.987,9.387-69.973,9.387
	c-34.133,0-83.627-8.533-86.187-8.533s-4.267-2.56-3.413-5.12c0-2.56,2.56-4.267,5.12-3.413c0.853,0,51.2,8.533,84.48,8.533
	s50.347,0,66.56-7.68l98.133-47.787c13.653-7.68,32.427-3.413,40.107,11.093c4.267,6.827,5.12,15.36,3.413,23.04
	c-1.707,7.68-6.827,14.507-13.653,17.92l-115.2,71.68C372.068,469.333,346.468,486.4,285.881,486.4z M25.615,460.8
	c-5.12,0-8.533-3.413-8.533-8.533s3.413-8.533,8.533-8.533s8.533,3.413,8.533,8.533S30.735,460.8,25.615,460.8z M345.615,375.467
	c-0.853,0-2.56,0-3.413-0.853l0,0c0,0-7.68-7.68-22.187-7.68h-51.2c-14.507,0-31.573-12.8-49.493-26.453
	c-16.213-11.947-33.28-24.747-44.373-24.747h-68.267c-2.56,0-4.267-1.707-4.267-4.267c0-2.56,1.707-4.267,4.267-4.267h68.267
	c14.507,0,31.573,12.8,49.493,26.453c16.213,11.947,33.28,24.747,44.373,24.747h51.2c18.773,0,28.16,9.387,29.013,9.387
	c1.707,1.707,1.707,4.267,0,5.973C348.175,375.467,346.468,375.467,345.615,375.467z M465.081,298.667h-42.667
	c-0.853,0-2.56-0.853-3.413-0.853l-8.533-8.533c-0.853-0.853-0.853-1.707-0.853-3.413v-21.333h-12.8
	c-2.56,0-4.267-1.707-4.267-4.267v-12.8h-21.333c-0.853,0-2.56-0.853-3.413-0.853l-8.533-8.533
	c-0.853-0.853-0.853-1.707-0.853-3.413v-21.333h-21.333c-0.853,0-2.56-0.853-3.413-0.853l-3.413-3.413
	c-1.707-1.707-1.707-4.267,0-5.973s4.267-1.707,5.973,0l1.707,1.707h23.893c2.56,0,4.267,1.707,4.267,4.267v23.893l5.973,5.973
	h23.893c2.56,0,4.267,1.707,4.267,4.267V256h12.8c2.56,0,4.267,1.707,4.267,4.267v23.893l5.973,5.973h36.693V253.44l-87.04-87.04
	c-1.707-1.707-1.707-4.267,0-5.973c1.707-1.707,4.267-1.707,5.973,0l88.747,88.747c0.853,0.853,0.853,1.707,0.853,3.413v42.667
	C469.348,296.96,467.641,298.667,465.081,298.667z M234.681,264.533c-18.773,0-29.867-23.893-29.867-64
	c0-10.24,0-18.773,0.853-27.307c-22.187-18.773-34.987-46.933-34.987-75.093C170.681,44.373,215.055,0,268.815,0
	s98.133,44.373,98.133,98.133s-44.373,98.133-98.133,98.133c-10.24,0-21.333-1.707-30.72-5.12h-0.853l-23.04-12.8
	c0,6.827-0.853,14.507-0.853,22.187c0,33.28,8.533,55.467,21.333,55.467c21.333,0,21.333-38.4,21.333-38.4
	c0-2.56,1.707-4.267,4.267-4.267s4.267,1.707,4.267,4.267C264.548,219.307,264.548,264.533,234.681,264.533z M240.655,183.467
	c9.387,2.56,18.773,4.267,28.16,4.267c49.493,0,89.6-40.107,89.6-89.6s-40.107-89.6-89.6-89.6s-89.6,40.107-89.6,89.6
	c0,23.893,10.24,47.787,27.307,64.853c3.413-32.427,11.947-52.907,19.627-65.707c0,0,0-0.853-0.853-0.853
	c-4.267-6.827-5.12-15.36-3.413-23.04c1.707-7.68,6.827-14.507,13.653-17.92c6.827-3.413,15.36-5.12,23.04-2.56
	c7.68,1.707,14.507,6.827,17.92,13.653c8.533,14.507,3.413,32.427-11.093,40.96c-1.707,0.853-4.267,0.853-5.973-1.707
	c-0.853-1.707-0.853-4.267,1.707-5.973c10.24-5.973,13.653-18.773,7.68-29.013c-2.56-5.12-7.68-8.533-12.8-10.24
	c-5.12-1.707-11.093-0.853-16.213,2.56c-5.12,2.56-8.533,7.68-10.24,12.8c-1.707,5.12-0.853,9.387,0.853,14.507
	c9.387-11.093,17.92-12.8,18.773-12.8c2.56-0.853,4.267,0.853,5.12,3.413c0.853,2.56-0.853,4.267-3.413,5.12
	c-0.853,0-31.573,8.533-37.547,83.627L240.655,183.467z"/>
</svg>